<svg width="36" height="36" viewBox="0 0 36 36" fill="none" xmlns="http://www.w3.org/2000/svg">
<circle opacity="0.9" cx="18" cy="18" r="18" fill="white"/>
<path d="M25.3671 11.8417C24.9415 11.4159 24.4361 11.0781 23.8799 10.8476C23.3237 10.6172 22.7275 10.4985 22.1254 10.4985C21.5234 10.4985 20.9272 10.6172 20.371 10.8476C19.8147 11.0781 19.3094 11.4159 18.8838 11.8417L18.0004 12.7251L17.1171 11.8417C16.2573 10.982 15.0913 10.499 13.8754 10.499C12.6596 10.499 11.4935 10.982 10.6338 11.8417C9.77401 12.7015 9.29102 13.8675 9.29102 15.0834C9.29102 16.2993 9.77401 17.4653 10.6338 18.3251L11.5171 19.2084L18.0004 25.6917L24.4838 19.2084L25.3671 18.3251C25.7929 17.8994 26.1307 17.3941 26.3612 16.8379C26.5917 16.2816 26.7103 15.6855 26.7103 15.0834C26.7103 14.4813 26.5917 13.8851 26.3612 13.3289C26.1307 12.7727 25.7929 12.2674 25.3671 11.8417V11.8417Z" stroke="#162A41" stroke-width="2" stroke-linecap="round" stroke-linejoin="round"/>
</svg>
